<svg width="78" height="78" viewBox="0 0 78 78" fill="none" xmlns="http://www.w3.org/2000/svg">
<g clip-path="url(#clip0_236_968)">
<path d="M6 67.8577V73.7565H7.61627V67.9138C7.61627 66.4906 8.49254 65.5169 9.91405 65.5169H10.2256C11.6472 65.5169 12.5235 66.4906 12.5235 67.9138V73.7565H14.1397V67.9138C14.1397 66.4906 15.0355 65.5169 16.457 65.5169H16.7491C18.1706 65.5169 19.0663 66.5093 19.0663 67.9138V73.7565H20.6826V67.8577C20.6826 65.4794 19.2417 64 16.8464 64H16.5349C14.8796 64 13.8476 64.7303 13.3413 65.648C12.835 64.7303 11.803 64 10.1283 64H9.83616C7.4215 64 6 65.4794 6 67.8577ZM23.8722 70.985C23.8722 72.7453 25.1574 74 27.4358 74H28.5263C29.6947 74 30.7072 73.5506 31.2525 72.6704C31.4862 73.2884 32.0314 73.7565 33.0246 73.7565H33.8424V72.3895H33.3555C32.6935 72.3895 32.4404 72.0524 32.4404 71.191V67.7453C32.4404 65.4419 31.1746 64 28.4873 64H28.2147C26.0532 64 24.5343 65.0112 24.2032 66.9962H25.839C26.0338 66.0786 26.8516 65.4232 28.1563 65.4232H28.6042C30.0841 65.4232 30.863 66.2846 30.863 67.4269V67.9513H27.4358C25.1574 67.9513 23.8722 69.1873 23.8722 70.985ZM25.508 70.9475C25.508 70.0112 26.2479 69.2997 27.6694 69.2997H30.863V70.3296C30.863 71.809 29.792 72.6142 28.351 72.6142H27.6694C26.2479 72.6142 25.508 71.8839 25.508 70.9475ZM36.6853 68.045V73.7565H38.3016V68.2135C38.3016 66.7528 39.3336 65.7229 40.7941 65.7229H42.2156V64.2247H40.7551C38.2626 64.2247 36.6853 65.648 36.6853 68.045ZM46.2949 64.2207H44.6787V70.5543C44.6787 72.7827 45.7886 73.7565 47.8333 73.7565H49.0211V72.2771H48.1644C46.9181 72.2771 46.2949 71.7153 46.2949 70.6292V64.2207ZM50.9936 67.9326V70.0674C50.9936 72.5019 52.5125 74 55.1024 74H55.7061C57.9065 74 59.3476 72.9139 59.7176 71.0786H58.0429C57.7508 71.94 56.9135 72.5206 55.7061 72.5206H55.1024C53.5447 72.5206 52.6099 71.603 52.6099 70.0861V69.7303H59.7955V67.9326C59.7955 65.4794 58.2961 64 55.7061 64H55.1024C52.5125 64 50.9936 65.4794 50.9936 67.9326ZM52.6099 67.8764C52.6099 66.3408 53.5447 65.4232 55.1024 65.4232H55.7061C57.264 65.4232 58.1987 66.3408 58.1987 67.8764V68.3446H52.6099V67.8764ZM64.2234 71.0412H62.6071C62.6266 72.7827 63.8729 74 66.2681 74H67.3001C69.6954 74 71 72.9888 71 71.2659C71 69.2809 69.6175 68.7191 67.9038 68.4382C67.5533 68.382 66.5212 68.176 66.1902 68.1199C65.0997 67.9326 64.3986 67.6329 64.3986 66.6966C64.3986 65.8914 65.0023 65.4045 66.4823 65.4045H67.1638C68.7217 65.4045 69.2085 66.0412 69.2085 66.8652H70.8442C70.8442 65.236 69.6175 64 67.2612 64H66.3849C64.0482 64 62.7629 64.9925 62.7629 66.6592C62.7629 68.6067 64.0482 69.1498 65.7812 69.4495C66.1317 69.5244 67.1443 69.7116 67.4364 69.7678C68.6243 69.955 69.3642 70.2547 69.3642 71.2659C69.3642 72.0899 68.7411 72.5768 67.2222 72.5768H66.3655C64.7687 72.5768 64.2429 71.9588 64.2234 71.0412Z" fill="black"/>
<path d="M70.5879 4.76551C69.794 4.12744 67.999 3.31237 64.9113 5.01372L35.547 21.0764C32.1436 22.9518 31.4256 23.112 27.9434 21.4484L14.3692 15.4081C12.1469 14.3501 10.0371 14.3868 8.42993 15.5128C6.5392 16.8374 5.69041 19.4906 6.10162 22.7912L8.36874 41.0365C8.71934 43.8644 10.066 46.0426 12.0635 47.0131C13.7792 47.8477 15.7515 47.7131 17.6024 46.6476L28.2516 40.855C30.2627 39.6967 31.1381 40.2257 34.0091 42.9949C34.4145 43.3856 34.8394 43.795 35.2909 44.2123L46.8596 54.8991C48.3467 56.2734 50.0311 57 51.7304 57C52.2155 57 52.702 56.9395 53.1767 56.8193C55.5274 56.2246 57.4305 54.1913 58.3974 51.2414L71.3765 11.6623C72.4245 8.46561 72.1446 6.01597 70.5879 4.76551ZM68.7667 8.75707C68.7667 8.85977 68.7509 8.95838 68.7275 9.05405C68.6588 9.45222 68.5043 9.96149 68.2688 10.6797L55.2895 50.2588C54.6728 52.1402 53.6058 53.3996 52.3615 53.7143C51.3381 53.9729 50.1806 53.5645 49.097 52.5641L37.5283 41.8777C37.0944 41.4762 36.6866 41.0832 36.2962 40.7068C34.3534 38.8319 32.5181 37.0612 30.0048 37.0612C28.9155 37.0612 27.8077 37.3937 26.6349 38.069L15.9867 43.8616C15.0595 44.3953 14.2269 44.488 13.5113 44.1402C12.5187 43.6572 11.8254 42.3848 11.6092 40.6482L9.3419 22.4022C9.08915 20.3657 9.46611 18.7258 10.3265 18.1236C11.0856 17.5923 12.1736 17.9249 12.9715 18.3064L26.5557 24.351C31.0798 26.5122 32.9744 26.1704 37.1403 23.8749L66.5048 7.81227C66.5916 7.76443 67.1954 7.48502 67.4714 7.48502C68.1868 7.48502 68.7667 8.0546 68.7667 8.75707Z" fill="#F58221"/>
</g>
<defs>
<clipPath id="clip0_236_968">
<rect width="78" height="78" fill="white"/>
</clipPath>
</defs>
</svg>
