<svg width="117" height="48" viewBox="0 0 117 48" fill="none" xmlns="http://www.w3.org/2000/svg">
            <path d="M24.0085 0C10.7513 0 0 10.7513 0 23.9915C0 37.2317 10.7344 48 24.0085 48C37.2825 48 48 37.2487 48 23.9915C48 10.7344 37.2656 0 24.0085 0Z" fill="#230078"></path>
            <path d="M2.42114 31.4413L10.9375 16.6772H17.7778L9.24442 31.4413H2.42114ZM24.0084 31.4074C19.7587 31.4074 16.3217 27.9873 16.3217 23.7376C16.3217 22.3492 16.6942 21.0286 17.3545 19.9111L19.2169 16.6942H26.0402L22.4677 22.8571C22.3153 23.1111 22.2307 23.4328 22.2307 23.7376C22.2307 24.7196 23.0264 25.5153 23.9915 25.5153C24.9566 25.5153 25.7693 24.7196 25.7693 23.7376C25.7693 22.8741 25.1428 22.146 24.3301 22.0106L27.327 16.8127C29.9005 18.0487 31.6783 20.6899 31.6783 23.7376C31.6783 27.9873 28.2412 31.4074 24.0084 31.4074Z" fill="white"></path>
            <path d="M57 12.0044H62.7566L72.8476 29.579H72.9323V12.0044H77.436V35.9959H71.7302L61.6392 18.3367H61.5714V35.9959H57V12.0044Z" fill="#63666A"></path>
            <path d="M80.6699 12.0044H85.4784V32.0171H94.4519V35.9959H80.6699V12.0044Z" fill="#63666A"></path>
            <path d="M97.4656 12.0044H107.557C110.655 12.0044 115.294 12.9017 115.294 18.1504C115.294 20.961 113.381 22.9928 110.52 23.5176V23.5853C113.787 23.8901 116.141 26.1081 116.141 29.0541C116.141 34.9293 110.706 35.9959 107.692 35.9959H97.4656V12.0044ZM102.223 21.6383H105.83C107.861 21.6383 110.367 21.0457 110.367 18.5737C110.367 15.797 107.929 15.5938 105.728 15.5938H102.223V21.6383ZM102.223 32.2711H106.371C108.606 32.2711 111.231 31.797 111.231 29.0033C111.231 25.8711 108.793 25.3293 106.371 25.3293H102.223V32.2541V32.2711Z" fill="#63666A"></path>
          </svg>