<?xml version="1.0" standalone="no"?>
<!DOCTYPE svg PUBLIC "-//W3C//DTD SVG 20010904//EN"
 "http://www.w3.org/TR/2001/REC-SVG-20010904/DTD/svg10.dtd">
<svg version="1.0" xmlns="http://www.w3.org/2000/svg"
 width="2432.046149pt" height="1130.250222pt" viewBox="0 0 2432.046149 1130.250222"
 preserveAspectRatio="xMidYMid meet">
<metadata>
Created by potrace 1.16, written by Peter Selinger 2001-2019
</metadata>
<g transform="translate(-1.000000,1132.750222) scale(0.100000,-0.100000)"
fill="#000000" stroke="none">
<path d="M10930 11017 c-129 -171 -234 -315 -232 -319 1 -5 -2 -8 -7 -8 -7 0
-197 -246 -251 -326 -8 -12 -156 -208 -327 -436 -172 -228 -313 -418 -313
-421 0 -4 171 -7 380 -7 l380 0 0 -2610 0 -2610 -240 0 -240 0 0 -305 0 -305
1015 0 1015 0 0 305 0 305 -165 0 -165 0 0 555 0 555 520 0 520 0 0 -1750 0
-1750 -297 -1 c-164 -1 -311 -1 -328 0 -16 0 -36 -1 -42 -4 -15 -5 164 -262
179 -257 5 1 7 -2 4 -7 -6 -9 25 -54 344 -501 59 -83 262 -371 603 -855 93
-132 173 -240 178 -240 7 0 160 210 742 1023 158 220 300 419 455 634 78 108
142 200 142 203 0 4 -12 6 -27 5 -16 -1 -175 -2 -355 -1 l-328 1 0 2510 0
2510 225 0 225 0 0 265 0 265 -1060 0 -1060 0 0 -265 0 -265 195 0 195 0 0
-500 0 -500 -515 0 -515 0 0 1799 0 1799 347 2 c191 0 349 3 351 5 4 3 -167
242 -603 845 -62 85 -244 337 -404 560 -161 223 -295 406 -299 407 -4 2 -113
-138 -242 -310z"/>
<path d="M16220 7554 c-14 -2 -65 -9 -115 -15 -338 -41 -702 -199 -897 -388
-31 -31 -60 -57 -63 -58 -3 -1 -22 -22 -43 -45 -131 -152 -208 -310 -241 -492
-15 -84 -13 -254 4 -371 57 -378 253 -634 632 -824 209 -104 440 -182 848
-286 182 -46 377 -100 435 -120 334 -117 456 -246 422 -447 -21 -124 -80 -201
-196 -258 -97 -48 -202 -63 -401 -57 -195 5 -308 29 -450 96 -288 136 -510
388 -615 698 l-29 88 -297 3 -297 2 6 -157 c4 -87 7 -402 7 -701 l0 -542 276
2 275 3 31 55 c114 209 93 194 186 132 153 -104 354 -191 557 -242 197 -50
327 -64 585 -64 251 -1 300 4 504 55 528 132 939 479 1058 894 20 70 23 102
22 260 0 199 -13 290 -64 446 -54 164 -101 241 -219 360 -226 225 -432 332
-847 439 -88 23 -214 57 -282 76 -67 19 -234 57 -370 84 -265 52 -345 75 -433
121 -147 78 -210 212 -164 350 37 110 170 210 344 258 363 100 774 -2 1007
-251 101 -108 167 -262 181 -425 l6 -73 339 0 338 0 -2 648 -3 647 -265 2
-266 2 -42 -84 c-24 -47 -46 -86 -50 -88 -4 -2 -62 20 -129 49 -357 154 -625
212 -1028 219 -126 2 -241 2 -255 -1z"/>
<path d="M5890 6715 l0 -715 288 2 287 3 6 125 c9 180 42 292 124 420 24 36
59 80 78 99 20 19 33 39 30 45 -3 6 -3 8 2 4 4 -4 24 5 44 21 45 36 142 85
216 111 67 23 203 43 265 38 42 -3 44 -4 43 -35 -1 -18 -2 -597 -2 -1285 l-1
-1253 -315 3 -315 3 0 -296 0 -295 28 0 c15 0 578 0 1252 0 l1225 0 3 295 2
295 -315 0 -315 0 0 1285 0 1286 33 -5 c17 -3 65 -8 104 -11 149 -13 298 -70
405 -156 147 -118 216 -284 227 -549 l6 -145 278 -3 277 -2 0 715 0 715 -1980
0 -1980 0 0 -715z"/>
<path d="M10 4470 l0 -370 2860 0 2860 0 0 370 0 370 -2860 0 -2860 0 0 -370z"/>
<path d="M18600 4470 l0 -370 2865 0 2865 0 0 370 0 370 -2865 0 -2865 0 0
-370z"/>
<path d="M10 3840 l0 -180 2860 0 2860 0 -2 178 -3 177 -2857 3 -2858 2 0
-180z"/>
<path d="M18600 3840 l0 -180 2865 0 2865 0 -2 178 -3 177 -2862 3 -2863 2 0
-180z"/>
<path d="M10465 3110 c-98 -20 -196 -94 -243 -184 -24 -46 -27 -61 -27 -156 0
-94 3 -111 27 -161 27 -54 50 -82 113 -134 48 -40 120 -60 215 -60 76 0 93 4
152 33 82 40 149 111 178 190 28 74 25 202 -7 273 -67 149 -239 233 -408 199z
m184 -59 c20 -14 44 -47 60 -80 24 -52 26 -66 26 -196 0 -193 -27 -264 -117
-311 -68 -35 -180 -4 -223 63 -27 40 -45 135 -45 233 0 162 39 266 111 304 49
24 144 18 188 -13z"/>
<path d="M11560 3111 c-186 -38 -306 -223 -270 -416 62 -330 523 -390 672 -87
30 60 33 75 33 157 0 76 -4 98 -26 146 -72 152 -239 234 -409 200z m174 -54
c79 -44 115 -185 97 -367 -18 -165 -75 -240 -186 -240 -137 0 -195 92 -195
310 0 171 33 261 110 301 49 26 125 25 174 -4z"/>
<path d="M9080 3086 c0 -10 9 -16 24 -16 14 0 36 -4 50 -10 l26 -10 0 -283 c0
-207 -3 -286 -12 -295 -7 -7 -29 -12 -50 -12 -32 0 -38 -3 -38 -20 0 -21 4
-21 233 -17 194 4 239 7 277 22 25 10 52 25 61 32 8 7 20 13 26 13 15 0 71 67
94 112 25 49 38 144 28 212 -16 117 -79 205 -181 252 l-63 29 -237 3 c-212 3
-238 2 -238 -12z m446 -41 c42 -17 83 -73 100 -137 18 -70 18 -240 -1 -304
-28 -97 -109 -147 -225 -142 l-65 3 0 295 0 294 25 7 c33 9 127 0 166 -16z"/>
<path d="M9945 2535 c-14 -13 -25 -36 -25 -50 0 -33 41 -75 73 -75 40 0 77 36
77 75 0 24 -7 39 -26 54 -35 28 -69 26 -99 -4z"/>
<path d="M11046 2539 c-53 -41 -18 -129 51 -129 32 0 73 42 73 75 0 33 -41 75
-73 75 -13 0 -36 -9 -51 -21z"/>
<path d="M12146 2544 c-42 -41 -43 -78 -3 -114 39 -37 104 -16 122 39 12 39
-31 91 -75 91 -16 0 -36 -7 -44 -16z"/>
</g>
</svg>
